<?xml version="1.0" encoding="UTF-8"?>
<svg version="1.1" id="Layer_1" xmlns="http://www.w3.org/2000/svg" xmlns:xlink="http://www.w3.org/1999/xlink" x="0px" y="0px" viewBox="0 0 618 131" style="enable-background:new 0 0 618 131;" xml:space="preserve">
<style type="text/css">
	.sty0{fill:#FFFFFF;}
	.sty1{fill:#FF6A00;}
	.sty2{fill:#11100D;}
</style>
<g>
	<path class="sty0" d="M296,32.4c-27.1,0-47.1,20.7-47.1,48.7c0,28,20,48.7,47.1,48.7c27.1,0,47.1-20.7,47.1-48.7   C343.1,53.1,323.1,32.4,296,32.4z M296,110.4c-15,0-26.1-12.4-26.1-29.2c0-16.8,11.1-29.2,26.1-29.2c15,0,26.1,12.4,26.1,29.2   C322.1,98,311,110.4,296,110.4z M396.2,32.4c-27.1,0-47.1,20.7-47.1,48.7c0,28,20,48.7,47.1,48.7c27.1,0,47.1-20.7,47.1-48.7   C443.3,53.1,423.3,32.4,396.2,32.4z M396.2,110.4c-15,0-26.1-12.4-26.1-29.2c0-16.8,11.1-29.2,26.1-29.2c15,0,26.1,12.4,26.1,29.2   C422.3,98,411.2,110.4,396.2,110.4z M563.4,11.6c0,6.4-5.4,11.6-12.1,11.6c-6.7,0-12.1-5.2-12.1-11.6c0-6.4,5.4-11.6,12.1-11.6   C558,0,563.4,5.2,563.4,11.6z M561.5,42.6v77.1c0,5.6-4.6,10.1-10.2,10.1c-5.6,0-10.1-4.5-10.1-10.1V42.6c0-5.6,4.5-10.2,10.1-10.2   C556.9,32.4,561.5,37,561.5,42.6C561.5,42.6,561.5,42.6,561.5,42.6z M241.5,69.1v50.7c0,5.6-4.6,10.1-10.2,10.1   c-5.6,0-10.1-4.5-10.1-10.1V68.3c0-9.8-6.6-16.4-16.4-16.4c-9.1,0-16.4,7.9-16.4,17.7v50.2c0,5.6-4.6,10.1-10.2,10.1   c-5.6,0-10.1-4.5-10.1-10.1V69.6c0-9.8-7.3-17.7-16.4-17.7c-9.8,0-16.4,6.6-16.4,16.4v51.5c0,5.6-4.6,10.1-10.2,10.1   c-5.6,0-10.1-4.5-10.1-10.1V69.1c0-21.9,14-36.7,34.9-36.7c12.4,0,22.3,5.2,28.4,14c6.1-8.8,16-14,28.4-14   C227.4,32.4,241.5,47.2,241.5,69.1z M531.8,42.6c0,1.3-0.2,2.5-0.7,3.7l-0.1,0.3l-0.1,0.2l-35.2,76.9v0c-2.5,5.4-8.9,7.7-14.2,5.2   c-2.3-1.1-4.2-2.9-5.2-5.2v0l-35.2-76.9c0,0,0,0,0-0.1c-0.6-1.3-0.9-2.7-0.9-4.2c0-3.4,1.7-6.5,4.4-8.4c4.6-3.2,10.9-2,14.1,2.7   c0.4,0.5,0.7,1.1,0.9,1.6l26.4,60.6l26.4-60.6c2.3-5.1,8.2-7.5,13.4-5.2C529.4,35,531.8,38.6,531.8,42.6L531.8,42.6z M618,120.1   c0,5.4-4.4,9.7-9.7,9.7H608c-10.4,0-19.1-3.7-25.3-10.1c-6.1-6.4-9.6-15.6-9.6-26.6V24.1c0-5.6,4.5-10.1,10.1-10.1   s10.1,4.5,10.1,10.1h0v10.2h12.4c3.2,0,6.1,1.5,7.9,4.1c2.4,3.4,2.4,7.9,0,11.2c-1.8,2.6-4.8,4.1-7.9,4.1h-12.4v39.4l0,0.8   c0,9.5,6.1,15.9,15.4,16.4v0C613.9,110.7,618,115,618,120.1L618,120.1z"/>
	<path class="sty1" d="M51.1,2.7C22.9,2.7,0,25.7,0,54c0,38.5,51.1,77,51.1,77s51.1-38.5,51.1-77C102.1,25.7,79.2,2.7,51.1,2.7"/>
	<path class="sty2" d="M80,49.2c0,3-2.5,5.5-5.5,5.5c-3,0-5.5-2.5-5.5-5.5c0-3,2.5-5.5,5.5-5.5C77.5,43.6,80,46.1,80,49.2z M28,43.6   c-3.1,0-5.5,2.5-5.6,5.5c0,3.1,2.5,5.5,5.5,5.6c3.1,0,5.5-2.5,5.6-5.5c0,0,0,0,0,0C33.5,46.1,31.1,43.6,28,43.6z M66.3,59.9   c-0.9,0-1.7,0.3-2.3,0.8c-0.1,0-4.7,4.1-12.2,4.1c-7.5,0-13.2-4.6-13.3-4.7c-1.4-1.1-3.4-1-4.6,0.4c0,0,0,0,0,0   c-1.1,1.4-1,3.4,0.4,4.6c0.8,0.6,7.7,6.2,17.4,6.2c10,0,16.3-5.5,16.5-5.7c1.3-1.2,1.4-3.3,0.3-4.6C67.9,60.4,67.1,60,66.3,59.9z"/>
</g>
</svg>