<?xml version="1.0" encoding="UTF-8"?>
<!-- Generator: Adobe Illustrator 16.0.0, SVG Export Plug-In . SVG Version: 6.00 Build 0)  -->
<!DOCTYPE svg PUBLIC "-//W3C//DTD SVG 1.1 Tiny//EN" "http://www.w3.org/Graphics/SVG/1.1/DTD/svg11-tiny.dtd">
<svg version="1.1" baseProfile="tiny" id="Isolation_Mode" xmlns="http://www.w3.org/2000/svg" xmlns:xlink="http://www.w3.org/1999/xlink" x="0px" y="0px" width="56px" height="58.336px" viewBox="0 0 56 58.336" xml:space="preserve">
<g>
	<path fill="#C1C6C8" d="M1.601,8.171c0,0,1.313,1.2,2.772,1.2c0.584,0,1.216-0.227,1.216-0.924c0-1.378-5.22-1.33-5.22-4.896   C0.369,1.411,2.168,0,4.47,0c2.497,0,3.729,1.313,3.729,1.313l-1.2,2.318c0,0-1.167-1.022-2.562-1.022   c-0.583,0-1.232,0.26-1.232,0.908c0,1.459,5.22,1.2,5.22,4.864c0,1.929-1.475,3.599-4.085,3.599c-2.724,0-4.231-1.654-4.231-1.654   L1.601,8.171z"/>
	<path fill="#C1C6C8" d="M22.73,0.097h2.837v7.328c0,1.216,0.794,1.864,2.01,1.864c1.215,0,2.01-0.648,2.01-1.864V0.097h2.837v7.328   c0,2.61-1.913,4.458-4.832,4.458c-2.95,0-4.863-1.848-4.863-4.458V0.097z"/>
	<path fill="#C1C6C8" d="M45.859,0.195h2.87l3.209,5.415c0.454,0.762,0.973,1.978,0.973,1.978h0.033c0,0-0.13-1.248-0.13-1.978   V0.195h2.837v11.591h-2.854l-3.226-5.398C49.118,5.625,48.6,4.41,48.6,4.41h-0.033c0,0,0.13,1.249,0.13,1.978v5.398h-2.837V0.195z"/>
	<path fill="#C1C6C8" d="M0,23.373h3.593c3.647,0,5.982,2.124,5.982,5.771s-2.334,5.82-5.982,5.82H0V23.373z M3.479,32.533   c1.962,0,3.162-1.168,3.162-3.389c0-2.205-1.249-3.34-3.162-3.34H2.837v6.729H3.479z"/>
	<path fill="#C1C6C8" d="M49.337,30.214l-3.826-6.842h3.227l1.313,2.789c0.373,0.794,0.697,1.669,0.697,1.669h0.033   c0,0,0.323-0.875,0.696-1.669l1.297-2.789H56l-3.826,6.842v4.75h-2.837V30.214z"/>
	<path fill="#C1C6C8" d="M1.732,54.527c0,0,1.313,1.2,2.772,1.2c0.583,0,1.216-0.228,1.216-0.925c0-1.378-5.22-1.329-5.22-4.896   c0-2.141,1.799-3.551,4.102-3.551c2.497,0,3.729,1.313,3.729,1.313l-1.2,2.318c0,0-1.167-1.021-2.562-1.021   c-0.583,0-1.232,0.26-1.232,0.908c0,1.459,5.221,1.199,5.221,4.863c0,1.93-1.476,3.599-4.085,3.599   c-2.724,0-4.231-1.653-4.231-1.653L1.732,54.527z"/>
	<polygon fill="#C1C6C8" points="23.15,46.55 25.988,46.55 25.988,51.025 27.155,51.025 29.555,46.55 32.603,46.55 29.474,52.095    29.474,52.127 32.78,58.142 29.603,58.142 27.155,53.441 25.988,53.441 25.988,58.142 23.15,58.142  "/>
	<path fill="#C1C6C8" d="M49.337,53.392l-3.826-6.842h3.227l1.313,2.789c0.373,0.794,0.697,1.67,0.697,1.67h0.033   c0,0,0.323-0.876,0.696-1.67l1.297-2.789H56l-3.826,6.842v4.75h-2.837V53.392z"/>
	<polygon fill="#00A9E0" points="33.372,34.963 29.026,23.374 27.578,27.237 30.475,34.963  "/>
	<polygon fill="#005EB8" points="26.129,23.374 21.783,34.963 24.68,34.963 27.578,27.237 29.026,23.374  "/>
</g>
</svg>