<?xml version="1.0" encoding="utf-8"?>
<!-- Generator: Adobe Illustrator 24.3.0, SVG Export Plug-In . SVG Version: 6.00 Build 0)  -->
<svg version="1.1" id="Layer_1" xmlns="http://www.w3.org/2000/svg" xmlns:xlink="http://www.w3.org/1999/xlink" x="0px" y="0px"
	 viewBox="0 0 1280 1280" style="enable-background:new 0 0 1280 1280;" xml:space="preserve">
<style type="text/css">
	.st0{fill:#C6C6C6;}
	.st1{fill:#FFFFFF;}
</style>
<rect class="st0" width="1280" height="1280"/>
<g>
	<g>
		<circle class="st1" cx="640" cy="385.7" r="133.9"/>
		<path class="st1" d="M904.9,675.8v77.1H375.1v-77.1C426.5,561.6,640,555.9,640,555.9S853.5,561.6,904.9,675.8z"/>
	</g>
	<g id="Logo_4_">
		<g>
			<path class="st1" d="M326.2,921.1c-0.6-1.6-1.3-3.2-2.1-4.8c-0.8-1.6-1.9-3.9-3.3-6.8l-21.3-44h-0.2l-2.2,44.4
				c-0.1,2.6,0.6,4.5,1.9,5.8c1.3,1.3,4.3,2,8.8,2.2v2.4H284v-2.4c2.9-0.1,4.9-0.9,6.1-2.2c1.1-1.3,1.8-3.2,1.8-5.8l2.6-48.1
				c0.1-2.4,0-4.2-0.5-5.2c-0.5-1.1-1.4-1.8-2.8-2.1c-1.4-0.3-3.5-0.6-6.3-0.6v-2.4h18.9c0.6,1.8,1.2,3.5,1.9,5.1
				c0.7,1.6,1.5,3.3,2.5,5.3l22.5,45.9h0.2l20.7-45.9c0.8-1.8,1.5-3.5,2.2-5.2c0.6-1.7,1.2-3.4,1.7-5.1H373v2.4
				c-2.1,0.1-3.7,0.3-4.9,0.6c-1.2,0.3-2,1.1-2.4,2.1c-0.4,1.1-0.6,2.8-0.5,5.2l2.3,48.1c0.1,2.3,0.5,4.1,1,5.2
				c0.5,1.1,1.5,1.8,2.8,2.1c1.4,0.3,3.3,0.5,5.7,0.7v2.4h-25.8v-2.4c1.8-0.1,3.2-0.4,4.2-0.7c1-0.3,1.8-1,2.2-2.1
				c0.4-1.1,0.5-2.8,0.4-5.2l-2.1-45.1h-0.2l-20.4,44.7c-1.3,2.9-2.2,5.2-3,6.8c-0.7,1.6-1.3,3.2-1.7,4.8H326.2z"/>
			<path class="st1" d="M441.8,912.3l1.1,2.4l-18,7.8l-0.7-0.6c0.1-0.6,0.3-1.8,0.5-3.7c0.2-1.8,0.3-3.8,0.3-5.8h-0.2
				c-2.9,2.8-5.9,5-9,6.8c-3.1,1.8-6.6,2.7-10.4,2.7c-4.7,0-7.9-1.1-9.7-3.3c-1.8-2.2-2.7-5.1-2.7-8.6v-23.8c0-1.8-0.3-3-0.9-3.5
				c-0.6-0.6-1.5-0.8-2.5-0.8c-1.5,0-3.1,0.3-4.8,1l-1.1-2.4l18-7.8l0.7,0.6c-0.1,0.6-0.2,2-0.3,4.4c-0.1,2.4-0.2,5.2-0.2,8.3v21.3
				c0,2.4,0.5,4.3,1.6,5.7c1.1,1.4,3,2.1,5.8,2.1c2.4,0,4.8-0.5,7.4-1.4c2.6-0.9,5.2-2.4,8-4.5v-23.1c0-1.8-0.3-3-0.9-3.5
				c-0.6-0.6-1.4-0.8-2.6-0.8c-1,0-2,0.2-3,0.5c-1,0.3-2,0.6-2.8,1l-1.1-2.4l19-8.2l0.7,0.6c-0.1,0.6-0.2,2-0.3,4.4
				c-0.1,2.4-0.2,5.2-0.2,8.3v22.7c0,1.9,0.3,3.2,0.9,3.7c0.6,0.6,1.5,0.8,2.5,0.8C438.6,913.2,440.2,912.9,441.8,912.3z"/>
			<path class="st1" d="M465.8,921.8c-5.3,0-9.3-0.9-12.1-2.8c-2.8-1.9-4.2-4.2-4.2-7.1c0-1,0.2-2.2,0.7-3.5
				c0.4-1.3,1.2-2.5,2.3-3.8h2.6c0.1,4.4,1.1,7.8,3,10.1c1.9,2.3,5,3.5,9.1,3.5c3.7,0,6.5-0.8,8.2-2.5c1.8-1.7,2.7-3.6,2.7-5.7
				c0-1.9-0.7-3.5-1.9-4.8c-1.3-1.2-3-2.3-5-3.3c-2-0.9-4.2-1.8-6.5-2.7c-2.3-0.9-4.5-1.8-6.5-2.9c-2-1.1-3.7-2.4-5-4
				c-1.3-1.6-1.9-3.6-1.9-6c0-3.8,1.6-7,4.9-9.5c3.3-2.6,7.8-3.8,13.7-3.8c2.3,0,4.6,0.2,7,0.6c2.4,0.4,4.6,1.1,6.7,2.2v11.9h-2.6
				c-0.5-4.1-1.9-6.9-4.2-8.6c-2.3-1.7-5-2.5-8.1-2.5c-3,0-5.3,0.6-6.9,1.9c-1.6,1.2-2.3,2.9-2.3,4.9c0,1.9,0.6,3.4,1.9,4.6
				c1.3,1.2,3,2.3,5,3.2c2,0.9,4.2,1.8,6.5,2.6c2.3,0.9,4.4,1.9,6.5,3c2,1.1,3.7,2.6,5,4.2c1.3,1.7,1.9,3.8,1.9,6.4
				c0,4.6-1.9,8.2-5.8,10.7C476.4,920.6,471.6,921.8,465.8,921.8z"/>
			<path class="st1" d="M518,921.8c-3.8,0-7.4-0.8-10.9-2.5c-3.5-1.7-6.3-4.2-8.5-7.5c-2.2-3.3-3.3-7.6-3.3-12.8
				c0-5.2,1.1-9.8,3.3-13.7c2.2-3.9,5.2-6.9,8.9-9c3.7-2.1,7.8-3.2,12.1-3.2c3.2,0,6.1,0.6,8.9,1.8c2.7,1.2,4.9,3,6.6,5.4
				c1.7,2.4,2.5,5.5,2.5,9.2l-33.4,4c0,0.3,0,0.7,0,1.1c0,6.3,1.6,11.3,4.7,14.9c3.1,3.6,7.3,5.4,12.5,5.4c3,0,5.7-0.6,8.2-1.7
				c2.5-1.1,4.8-2.6,6.8-4.3l1.8,1.7c-2.1,3.3-4.8,6-8.3,8.1C526.6,920.8,522.6,921.8,518,921.8z M517.5,877c-3.9,0-6.8,1.3-8.9,3.8
				c-2.1,2.6-3.4,5.7-3.9,9.4l23.1-2.8c-0.4-3-1.4-5.4-2.9-7.4C523.3,878,520.9,877,517.5,877z"/>
			<path class="st1" d="M602.1,912.3l1.1,2.4l-18,7.8l-0.7-0.6c0.1-0.6,0.3-1.8,0.5-3.7c0.2-1.8,0.3-3.8,0.3-5.8h-0.2
				c-2.9,2.8-5.9,5-9,6.8c-3.1,1.8-6.6,2.7-10.4,2.7c-4.7,0-7.9-1.1-9.7-3.3c-1.8-2.2-2.7-5.1-2.7-8.6v-23.8c0-1.8-0.3-3-0.9-3.5
				c-0.6-0.6-1.5-0.8-2.5-0.8c-1.5,0-3.1,0.3-4.8,1l-1.1-2.4l18-7.8l0.7,0.6c-0.1,0.6-0.2,2-0.3,4.4c-0.1,2.4-0.2,5.2-0.2,8.3v21.3
				c0,2.4,0.5,4.3,1.6,5.7c1.1,1.4,3,2.1,5.8,2.1c2.4,0,4.8-0.5,7.4-1.4c2.6-0.9,5.2-2.4,8-4.5v-23.1c0-1.8-0.3-3-0.9-3.5
				c-0.6-0.6-1.4-0.8-2.6-0.8c-1,0-2,0.2-3,0.5c-1,0.3-2,0.6-2.8,1l-1.1-2.4l19-8.2l0.7,0.6c-0.1,0.6-0.2,2-0.3,4.4
				c-0.1,2.4-0.2,5.2-0.2,8.3v22.7c0,1.9,0.3,3.2,0.9,3.7c0.6,0.6,1.5,0.8,2.5,0.8C599,913.2,600.6,912.9,602.1,912.3z"/>
			<path class="st1" d="M610.4,920.3v-2.4c1.7-0.1,3-0.3,4-0.6c1-0.3,1.7-1.1,2.1-2.2c0.4-1.1,0.6-2.9,0.6-5.3v-23.5
				c0-1.9-0.3-3.1-0.9-3.7c-0.6-0.6-1.4-0.9-2.5-0.9c-0.8,0-1.6,0.1-2.4,0.3c-0.8,0.2-1.6,0.4-2.4,0.8l-1.1-2.4l17.9-7.8l0.7,0.6
				c-0.1,0.6-0.3,1.8-0.5,3.6c-0.2,1.8-0.3,3.7-0.3,5.7h0.2c2.8-2.8,5.7-5,8.6-6.8c2.9-1.8,6.3-2.6,10.2-2.6c4.2,0,7.2,0.9,9.1,2.6
				c1.9,1.7,3.1,4,3.5,6.9c2.7-2.9,5.6-5.2,8.6-6.9c3-1.7,6.4-2.6,10.2-2.6c4.8,0,8.1,1.1,9.9,3.3c1.9,2.2,2.8,5.1,2.8,8.6v24.7
				c0,2.4,0.3,4.2,0.8,5.3c0.5,1.1,1.5,1.8,2.8,2.2c1.4,0.3,3.3,0.6,5.8,0.6v2.4h-25.1v-2.4c1.6-0.1,2.9-0.3,3.9-0.6
				c1-0.3,1.7-1.1,2.1-2.2c0.4-1.1,0.7-2.9,0.7-5.3v-22.2c0-2.4-0.6-4.3-1.7-5.7c-1.2-1.4-3.1-2.1-6-2.1c-4.5,0-9.4,2-14.8,6v24
				c0,2.4,0.2,4.2,0.7,5.3c0.5,1.1,1.3,1.8,2.6,2.2c1.2,0.3,3,0.6,5.2,0.6v2.4h-24.1v-2.4c1.6-0.1,2.9-0.3,3.9-0.6
				c1-0.3,1.7-1.1,2.1-2.2c0.4-1.1,0.7-2.9,0.7-5.3v-22.2c0-2.4-0.6-4.3-1.7-5.7c-1.2-1.4-3.1-2.1-6-2.1c-4.6,0-9.5,2-14.8,6v24
				c0,2.4,0.2,4.2,0.7,5.3c0.5,1.1,1.3,1.8,2.5,2.2c1.2,0.3,2.9,0.6,5.1,0.6v2.4H610.4z"/>
			<path class="st1" d="M751.1,921.8c-3.8,0-7-1.3-9.7-3.9c-2.7-2.6-4.1-6.5-4.1-11.8c0-4.1,0.9-8.2,2.6-12.1
				c1.7-3.9,4-7.5,6.7-10.6c2.8-3.1,5.9-5.6,9.3-7.5c3.4-1.8,6.8-2.7,10.2-2.7c3.9,0,7.2,1.3,9.9,3.9c2.7,2.6,4,6.6,4,11.9
				c0,4.2-0.9,8.3-2.6,12.2c-1.7,3.9-4,7.5-6.9,10.6c-2.8,3.1-5.9,5.6-9.4,7.3C757.8,920.9,754.5,921.8,751.1,921.8z M755.4,916.7
				c3,0,5.9-1.1,8.5-3.3c2.6-2.2,4.7-5.1,6.2-8.6c1.6-3.6,2.3-7.5,2.2-11.7c0-2.7-0.4-5.1-1.1-7.3c-0.7-2.2-1.9-4-3.3-5.3
				c-1.5-1.3-3.5-2-5.9-2c-3,0-5.8,1.1-8.4,3.3c-2.6,2.2-4.6,5.1-6.1,8.6c-1.5,3.6-2.3,7.4-2.3,11.6c0,4.5,0.9,8.1,2.7,10.7
				C749.6,915.3,752.1,916.7,755.4,916.7z"/>
			<path class="st1" d="M787.1,944.6v-2.4c2.6-1,4.3-3.2,5.2-6.6c0.9-3.4,1.5-8.5,2.1-15.4l3.1-42.4h-7.8v-3.1h8
				c0.8-10.8,2.8-19.1,6-25c3.2-5.9,6.6-9.6,10.4-11.2c1.7,1.3,2.8,3.2,3.3,5.5c0.5,2.4,0.6,4.9,0.3,7.5c-0.3,2.6-0.9,5.1-1.6,7.3
				h-2.5c0.3-2.3,0.3-4.4,0.1-6.4c-0.2-2-0.6-3.6-1.1-4.8c-0.5-1.2-1.2-1.8-2.1-1.8c-0.7,0-1.4,0.8-2.1,2.5
				c-0.6,1.7-1.2,4.6-1.8,8.7c-0.6,4.2-1.1,10-1.7,17.5h12.8v3.1h-10c-1.2,0-2,0.2-2.5,0.7c-0.4,0.4-0.7,1.3-0.9,2.6l-3,40.7
				c-0.5,7.7-2.2,13.4-5,17.1C793.6,942.6,790.5,944.5,787.1,944.6z"/>
			<path class="st1" d="M854.5,943.6v-2.3c2.5-0.4,4.4-1.4,5.7-2.8c1.3-1.5,2.1-3.7,2.6-6.6c0.4-2.9,0.7-6.8,0.7-11.5v-58.5
				c0-2.4-0.3-4.2-0.8-5.2c-0.6-1.1-1.6-1.8-3.1-2.1c-1.5-0.3-3.7-0.6-6.7-0.6v-2.4h27.8v2.4c-2,0.1-3.6,0.3-4.7,0.6
				c-1.1,0.3-1.9,1.1-2.4,2.1c-0.5,1.1-0.7,2.8-0.7,5.2v59.8c0,5-0.8,9.1-2.5,12.3c-1.7,3.2-3.9,5.7-6.7,7.2
				C860.9,942.8,857.8,943.6,854.5,943.6z"/>
			<path class="st1" d="M915.3,921.8c-3.8,0-7.4-0.8-10.9-2.5c-3.5-1.7-6.3-4.2-8.5-7.5c-2.2-3.3-3.3-7.6-3.3-12.8
				c0-5.2,1.1-9.8,3.3-13.7c2.2-3.9,5.2-6.9,8.9-9c3.7-2.1,7.8-3.2,12.1-3.2c3.2,0,6.1,0.6,8.9,1.8c2.7,1.2,4.9,3,6.6,5.4
				c1.7,2.4,2.5,5.5,2.5,9.2l-33.4,4c0,0.3,0,0.7,0,1.1c0,6.3,1.6,11.3,4.7,14.9c3.1,3.6,7.3,5.4,12.5,5.4c3,0,5.7-0.6,8.2-1.7
				c2.5-1.1,4.8-2.6,6.8-4.3l1.8,1.7c-2.1,3.3-4.8,6-8.3,8.1S919.8,921.8,915.3,921.8z M914.7,877c-3.9,0-6.8,1.3-8.9,3.8
				c-2.1,2.6-3.4,5.7-3.9,9.4l23.1-2.8c-0.4-3-1.4-5.4-2.9-7.4C920.6,878,918.1,877,914.7,877z"/>
			<path class="st1" d="M961.9,921.1c-0.5-1.8-1-3.3-1.4-4.6c-0.4-1.2-1.1-2.7-1.9-4.5l-11.8-27.2c-1-2.3-1.9-4-2.7-5.1
				c-0.8-1-1.7-1.7-2.7-2.1c-1-0.3-2.2-0.6-3.6-0.6v-2.4h22.4v2.4c-2.2,0.1-3.7,0.3-4.6,0.7c-0.9,0.4-1.2,1.1-1.1,2.2
				c0.2,1.1,0.7,2.7,1.6,4.9l10.1,23.7h0.2l10-23.2l-0.2-0.5c-1-2.3-1.8-4-2.6-5.1c-0.8-1-1.6-1.7-2.3-2.1c-0.8-0.3-1.7-0.6-2.6-0.6
				v-2.4H990v2.4c-2.2,0.1-3.8,0.3-4.7,0.7c-0.9,0.4-1.3,1.1-1.2,2.2c0.1,1.1,0.6,2.7,1.5,4.9l9.8,23.7h0.2l9.5-23.7
				c1.3-3.2,1.4-5.3,0.5-6.2c-0.9-0.9-3.2-1.4-7-1.6v-2.4h19.7v2.4c-1.9,0.1-3.4,0.7-4.6,1.6c-1.2,0.9-2.5,3-3.8,6.2l-11,27.2
				c-0.7,1.9-1.3,3.4-1.7,4.6c-0.4,1.2-0.8,2.7-1.2,4.4h-4.9c-0.5-1.8-1-3.3-1.6-4.6c-0.5-1.2-1.2-2.7-1.9-4.5l-8.7-21l-9.1,21
				c-0.8,1.9-1.4,3.4-1.8,4.6c-0.4,1.2-0.8,2.7-1.3,4.4H961.9z"/>
			<path class="st1" d="M1039,909.8c0,2.4,0.3,4.2,0.8,5.3c0.5,1.1,1.5,1.8,2.8,2.2c1.4,0.3,3.3,0.6,5.8,0.6v2.4h-25.1v-2.4
				c1.6-0.1,2.9-0.3,3.9-0.6c1-0.3,1.7-1.1,2.1-2.2c0.4-1.1,0.7-2.9,0.7-5.3v-23.4c0-1.9-0.3-3.2-0.9-3.8c-0.6-0.6-1.5-0.9-2.5-0.9
				c-1,0-2,0.2-3.1,0.5c-1.1,0.3-2.1,0.6-3,1l-1.1-2.4l19.3-8.2l0.7,0.6c-0.1,0.6-0.2,2-0.3,4.4c-0.1,2.4-0.2,5.3-0.2,8.6V909.8z
				 M1034.5,863c-1.6,0-3-0.5-4.1-1.6s-1.7-2.3-1.7-3.8c0-1.4,0.6-2.7,1.7-3.7c1.1-1,2.5-1.6,4.1-1.6c1.6,0,3,0.5,4.1,1.6
				c1.1,1,1.7,2.3,1.7,3.7c0,1.5-0.6,2.8-1.7,3.8S1036.2,863,1034.5,863z"/>
			<path class="st1" d="M1071.7,921.8c-5.3,0-9.3-0.9-12.1-2.8c-2.8-1.9-4.2-4.2-4.2-7.1c0-1,0.2-2.2,0.7-3.5
				c0.4-1.3,1.2-2.5,2.3-3.8h2.6c0.1,4.4,1.1,7.8,3,10.1c1.9,2.3,5,3.5,9.1,3.5c3.7,0,6.5-0.8,8.2-2.5c1.8-1.7,2.7-3.6,2.7-5.7
				c0-1.9-0.6-3.5-1.9-4.8c-1.3-1.2-3-2.3-5-3.3c-2-0.9-4.2-1.8-6.5-2.7c-2.3-0.9-4.5-1.8-6.5-2.9c-2-1.1-3.7-2.4-5-4
				c-1.3-1.6-1.9-3.6-1.9-6c0-3.8,1.6-7,4.9-9.5c3.3-2.6,7.8-3.8,13.7-3.8c2.3,0,4.6,0.2,7,0.6c2.4,0.4,4.6,1.1,6.7,2.2v11.9h-2.6
				c-0.5-4.1-1.9-6.9-4.2-8.6c-2.3-1.7-5-2.5-8.1-2.5c-3,0-5.3,0.6-6.9,1.9c-1.6,1.2-2.3,2.9-2.3,4.9c0,1.9,0.6,3.4,1.9,4.6
				c1.3,1.2,3,2.3,5,3.2c2,0.9,4.2,1.8,6.5,2.6c2.3,0.9,4.4,1.9,6.5,3c2,1.1,3.7,2.6,5,4.2c1.3,1.7,1.9,3.8,1.9,6.4
				c0,4.6-1.9,8.2-5.8,10.7C1082.4,920.6,1077.5,921.8,1071.7,921.8z"/>
			<path class="st1" d="M1149.1,909.8c0,2.4,0.2,4.2,0.7,5.3c0.5,1.1,1.4,1.8,2.8,2.2c1.4,0.3,3.3,0.6,5.8,0.6v2.4h-24.9v-2.4
				c1.7-0.1,3-0.3,4-0.6c1-0.3,1.7-1.1,2.1-2.2c0.4-1.1,0.6-2.9,0.6-5.3v-22.2c0-2.4-0.6-4.3-1.7-5.7c-1.1-1.4-3.1-2.1-6-2.1
				c-2.4,0-4.9,0.5-7.6,1.4c-2.7,1-5.5,2.5-8.3,4.6v24c0,2.4,0.3,4.2,0.8,5.3c0.5,1.1,1.5,1.8,2.8,2.2c1.4,0.3,3.3,0.6,5.8,0.6v2.4
				H1101v-2.4c1.7-0.1,3-0.3,4-0.6c1-0.3,1.7-1.1,2.1-2.2c0.4-1.1,0.6-2.9,0.6-5.3v-57.5c0-1.9-0.3-3.2-0.9-3.7
				c-0.6-0.6-1.4-0.8-2.6-0.8c-1,0-2,0.1-3.1,0.4c-1.1,0.3-2.1,0.6-3,1l-1.1-2.4l19.3-8.3l0.7,0.6c-0.1,0.6-0.2,2-0.3,4.4
				c-0.1,2.4-0.2,5.3-0.2,8.6v30.4c2.9-2.8,6-5,9.2-6.8s6.8-2.6,10.7-2.6c4.6,0,7.9,1.1,9.7,3.3c1.9,2.2,2.8,5.1,2.8,8.6V909.8z"/>
			<path class="st1" d="M284.4,1026.8v-2c1.7-0.1,3.1-0.2,4.1-0.5c1-0.3,1.7-0.9,2.1-1.9c0.4-0.9,0.6-2.4,0.6-4.4v-41.3
				c0-2.1-0.2-3.6-0.7-4.5c-0.5-0.9-1.4-1.5-2.6-1.8c-1.3-0.3-3.2-0.5-5.7-0.5v-2h9.1c4.3,0,7.9-0.1,10.6-0.2
				c2.7-0.1,4.9-0.2,6.5-0.2c6.6,0,11.9,1.2,16,3.6c4,2.4,6,5.8,6,10.3c0,2.1-0.5,4.2-1.6,6.3c-1.1,2.1-2.7,3.9-5,5.5
				c-2.3,1.6-5.3,2.8-9,3.6c-3.7,0.8-8.2,1-13.5,0.5v-2.7c5.1,0.4,9.1,0,12-1.1c2.9-1.2,5-2.8,6.2-4.9c1.2-2.1,1.8-4.4,1.8-6.8
				c0-3-0.7-5.3-2.1-7c-1.4-1.6-3.3-2.7-5.6-3.3c-2.3-0.6-4.8-0.9-7.5-0.9c-2.2,0-3.8,0.4-4.9,1.1c-1.1,0.7-1.7,2.4-1.7,5.1v41.3
				c0,2,0.2,3.5,0.7,4.4c0.5,0.9,1.4,1.6,2.9,1.9c1.4,0.3,3.6,0.5,6.4,0.5v2H284.4z"/>
			<path class="st1" d="M339.8,1026.8v-2c1.7-0.1,3.1-0.2,4.1-0.5c1-0.3,1.7-0.9,2.1-1.9c0.4-0.9,0.6-2.4,0.6-4.4v-41.3
				c0-2.1-0.2-3.6-0.7-4.5c-0.5-0.9-1.4-1.5-2.6-1.8c-1.3-0.3-3.2-0.5-5.7-0.5v-2h23.9v2c-1.7,0.1-3.1,0.2-4,0.5
				c-1,0.3-1.6,0.9-2.1,1.8c-0.4,0.9-0.6,2.4-0.6,4.5v15.5c0.5-0.4,1.1-0.6,1.9-0.7c0.7-0.1,1.6-0.2,2.6-0.2h25.2
				c1.7,0,2.9-0.3,3.6-0.8c0.7-0.5,1.1-1.6,1.1-3.2v-10.7c0-2.1-0.2-3.6-0.7-4.5c-0.5-0.9-1.4-1.5-2.6-1.8c-1.3-0.3-3.2-0.5-5.7-0.5
				v-2h23.9v2c-1.7,0.1-3.1,0.2-4,0.5c-1,0.3-1.6,0.9-2.1,1.8c-0.4,0.9-0.6,2.4-0.6,4.5v41.3c0,2,0.2,3.5,0.7,4.4
				c0.4,0.9,1.3,1.6,2.6,1.9c1.3,0.3,3.2,0.5,5.7,0.5v2h-23.8v-2c1.7-0.1,3.1-0.2,4.1-0.5c1-0.3,1.7-0.9,2.1-1.9
				c0.4-0.9,0.6-2.4,0.6-4.4v-24.4c-0.5,0.4-1.1,0.7-1.9,0.8c-0.8,0.1-1.6,0.2-2.6,0.2h-25.2c-1.7,0-2.9,0.3-3.6,0.8
				c-0.7,0.5-1.1,1.6-1.1,3.1v19.5c0,2,0.2,3.5,0.7,4.4c0.5,0.9,1.4,1.6,2.6,1.9c1.3,0.3,3.2,0.5,5.6,0.5v2H339.8z"/>
			<path class="st1" d="M417.2,1026.8v-2c1.7-0.1,3.1-0.2,4.1-0.5c1-0.3,1.7-0.9,2.1-1.9c0.4-0.9,0.6-2.4,0.6-4.4v-41.3
				c0-2.1-0.2-3.6-0.7-4.5c-0.5-0.9-1.4-1.5-2.6-1.8c-1.3-0.3-3.2-0.5-5.7-0.5v-2h23.9v2c-1.7,0.1-3.1,0.2-4,0.5
				c-1,0.3-1.6,0.9-2.1,1.8c-0.4,0.9-0.6,2.4-0.6,4.5v41.3c0,2,0.2,3.5,0.7,4.4c0.5,0.9,1.4,1.6,2.7,1.9c1.3,0.3,3.2,0.5,5.7,0.5v2
				H417.2z"/>
			<path class="st1" d="M452.2,1026.8v-2c1.7-0.1,3.1-0.2,4-0.5c1-0.3,1.6-0.9,2.1-1.9c0.4-0.9,0.6-2.4,0.6-4.4v-41.3
				c0-2.1-0.2-3.6-0.7-4.5c-0.5-0.9-1.4-1.5-2.6-1.8c-1.3-0.3-3.2-0.5-5.7-0.5v-2h23.9v2c-1.7,0.1-3.1,0.2-4,0.5
				c-1,0.3-1.6,0.9-2.1,1.8c-0.4,0.9-0.6,2.4-0.6,4.5v41.3c0,2.5,0.5,4.1,1.5,4.8c1,0.6,2.9,0.9,5.8,0.9h8.7c3.2,0,5.7-0.5,7.4-1.5
				c1.8-1,3-2.3,3.8-3.9c0.8-1.6,1.3-3.4,1.5-5.3h2.2l-0.8,13.9H452.2z"/>
			<path class="st1" d="M553.5,1018c0.8,2.1,1.5,3.6,2.2,4.5c0.7,0.9,1.5,1.5,2.5,1.8c1,0.3,2.3,0.5,4,0.6v2h-22.8v-2
				c2.2-0.1,3.8-0.3,4.8-0.6c1.1-0.3,1.6-0.9,1.8-1.9c0.1-0.9-0.2-2.4-1-4.4l-5.4-15.3c-0.3,0.3-0.8,0.5-1.4,0.6
				c-0.6,0.1-1.3,0.1-2,0.1h-12.5c-1.4,0-2.5,0.1-3.2,0.4c-0.7,0.3-1.3,1.1-1.8,2.4l-4.5,11.7c-0.8,2.2-0.8,3.9,0,5
				c0.9,1.1,3.3,1.7,7.4,1.8v2h-19.8v-2c2-0.1,3.6-0.7,4.8-1.8c1.2-1.1,2.2-2.8,3.1-5l16.9-43.2c0.6-1.5,1.2-3,1.8-4.5
				c0.6-1.5,1.1-3,1.5-4.5h4.7c0.4,1.5,0.9,3,1.5,4.5c0.5,1.5,1.1,3,1.8,4.5L553.5,1018z M536.3,1000.2c0.8,0,1.4-0.1,1.7-0.3
				c0.3-0.2,0.3-0.7,0-1.4l-7.8-21.6H530l-9.2,23.5c0.3-0.1,0.7-0.2,1.1-0.2c0.4,0,1,0,1.5,0H536.3z"/>
			<path class="st1" d="M622.6,1027.5c-1-1.4-2-2.7-3.2-4.1s-2.7-3.1-4.7-5.1l-34.9-36.7h-0.2v36.3c0,2.2,0.6,3.8,1.8,5
				c1.2,1.1,3.6,1.7,7.4,1.9v2h-20.2v-2c2.6-0.1,4.4-0.7,5.3-1.9c0.9-1.1,1.4-2.8,1.4-5v-41.3c0-2.3-0.7-4-2.2-5.1
				c-1.4-1.1-3.7-1.7-6.9-1.8v-2h13c1,1.5,2,2.9,3.1,4.4c1.1,1.4,2.3,2.8,3.7,4.2l35.3,36.7h0.2v-36.3c0-2.2-0.6-3.8-1.8-5
				c-1.2-1.1-3.6-1.7-7.4-1.9v-2h20.2v2c-2.5,0.1-4.3,0.7-5.3,1.9c-1,1.1-1.4,2.8-1.4,5v41.3c0,1.7,0,3.2,0,4.8
				c0,1.5,0.1,3.1,0.1,4.8H622.6z"/>
			<path class="st1" d="M640.5,967.8H692v13.9h-2.2c-0.1-2.1-0.5-3.9-1.1-5.5c-0.6-1.6-1.7-2.9-3.2-3.8c-1.6-0.9-4-1.4-7.3-1.4h-7.9
				v47c0,2,0.2,3.5,0.7,4.4c0.5,0.9,1.4,1.6,2.7,1.9c1.3,0.3,3.2,0.5,5.7,0.5v2h-23.9v-2c1.7-0.1,3.1-0.2,4.1-0.5
				c1-0.3,1.7-0.9,2.1-1.9c0.4-0.9,0.6-2.4,0.6-4.4v-47h-8c-3.2,0-5.6,0.5-7.2,1.4c-1.6,0.9-2.7,2.2-3.2,3.8
				c-0.6,1.6-0.9,3.4-1.1,5.5h-2.2V967.8z"/>
			<path class="st1" d="M702.3,1026.8v-2c1.7-0.1,3.1-0.2,4.1-0.5c1-0.3,1.7-0.9,2.1-1.9c0.4-0.9,0.6-2.4,0.6-4.4v-41.3
				c0-2.1-0.2-3.6-0.7-4.5c-0.5-0.9-1.4-1.5-2.6-1.8c-1.3-0.3-3.2-0.5-5.7-0.5v-2h23.9v2c-1.7,0.1-3.1,0.2-4,0.5
				c-1,0.3-1.6,0.9-2.1,1.8c-0.4,0.9-0.6,2.4-0.6,4.5v15.5c0.5-0.4,1.1-0.6,1.9-0.7c0.7-0.1,1.6-0.2,2.6-0.2h25.2
				c1.7,0,2.9-0.3,3.6-0.8c0.7-0.5,1.1-1.6,1.1-3.2v-10.7c0-2.1-0.2-3.6-0.7-4.5c-0.5-0.9-1.4-1.5-2.6-1.8c-1.3-0.3-3.2-0.5-5.7-0.5
				v-2h23.9v2c-1.7,0.1-3.1,0.2-4,0.5c-1,0.3-1.6,0.9-2.1,1.8c-0.4,0.9-0.6,2.4-0.6,4.5v41.3c0,2,0.2,3.5,0.7,4.4
				c0.4,0.9,1.3,1.6,2.6,1.9c1.3,0.3,3.2,0.5,5.7,0.5v2h-23.8v-2c1.7-0.1,3.1-0.2,4.1-0.5c1-0.3,1.7-0.9,2.1-1.9
				c0.4-0.9,0.6-2.4,0.6-4.4v-24.4c-0.5,0.4-1.1,0.7-1.9,0.8c-0.8,0.1-1.6,0.2-2.6,0.2h-25.2c-1.7,0-2.9,0.3-3.6,0.8
				c-0.7,0.5-1.1,1.6-1.1,3.1v19.5c0,2,0.2,3.5,0.7,4.4c0.5,0.9,1.4,1.6,2.6,1.9c1.3,0.3,3.2,0.5,5.6,0.5v2H702.3z"/>
			<path class="st1" d="M833.1,1027.4c-2.6,0-4.8-0.3-6.5-1c-1.7-0.7-3.2-1.5-4.4-2.6c-1.2-1.1-2.4-2.2-3.4-3.5l-19.7-22.5
				c-0.8-0.9-1.4-1.6-1.9-1.8c-0.4-0.3-1-0.4-1.7-0.5v-2.7c6.1,0.5,10.9-0.3,14.3-2.4c3.4-2.1,5.2-5.2,5.2-9.5
				c0-2.9-0.7-5.1-2.1-6.6c-1.4-1.5-3.2-2.5-5.4-3.1c-2.2-0.5-4.6-0.8-7.1-0.8c-2.3,0-4,0.3-5.1,1c-1.1,0.7-1.7,2.4-1.7,5.1v41.3
				c0,2,0.2,3.5,0.7,4.4c0.5,0.9,1.4,1.6,2.6,1.9c1.3,0.3,3.2,0.5,5.6,0.5v2h-23.8v-2c1.7-0.1,3.1-0.2,4.1-0.5
				c1-0.3,1.7-0.9,2.1-1.9c0.4-0.9,0.6-2.4,0.6-4.4v-41.3c0-2.1-0.2-3.6-0.7-4.5c-0.5-0.9-1.4-1.5-2.6-1.8c-1.3-0.3-3.2-0.5-5.7-0.5
				v-2h9.1c4.4,0,7.9-0.1,10.4-0.2c2.5-0.1,4.9-0.2,7.1-0.2c7.3,0,12.6,1.2,16,3.7c3.4,2.5,5.1,5.6,5.1,9.4c0,3.9-1.6,7.1-4.8,9.7
				c-3.2,2.5-7.3,4.2-12.3,4.9v0.2l19.8,22.6c1.8,2,3.2,3.4,4.3,4.5c1.1,1,2.2,1.7,3.2,2.1c1,0.4,2.2,0.5,3.6,0.5v2
				c-0.8,0.2-1.7,0.4-2.5,0.4C834.6,1027.3,833.8,1027.4,833.1,1027.4z"/>
			<path class="st1" d="M872.3,966.5c4.3,0,8.4,0.7,12.2,2.1c3.8,1.4,7.2,3.5,10.2,6.2c3,2.7,5.3,5.9,7,9.7c1.7,3.8,2.5,8,2.5,12.7
				c0,4.7-0.8,8.9-2.5,12.7c-1.7,3.8-4,7-7,9.8c-3,2.7-6.4,4.8-10.3,6.3c-3.9,1.5-8,2.2-12.3,2.2c-4.3,0-8.3-0.7-12.2-2.1
				c-3.9-1.4-7.3-3.5-10.2-6.2c-3-2.7-5.3-5.9-7-9.7c-1.7-3.8-2.5-8-2.5-12.7c0-4.7,0.8-8.9,2.5-12.7c1.7-3.8,4-7,7-9.8
				c3-2.7,6.4-4.8,10.2-6.3C863.8,967.2,867.9,966.5,872.3,966.5z M873.6,1024.6c3.8,0,7.3-1,10.6-2.9c3.2-2,5.8-4.8,7.8-8.7
				c2-3.8,3-8.5,3-14.2c0-6.2-1.1-11.4-3.4-15.7c-2.3-4.3-5.3-7.6-8.9-9.8c-3.6-2.2-7.5-3.4-11.7-3.4c-3.8,0-7.4,1-10.6,2.9
				c-3.2,2-5.9,4.8-7.8,8.7c-2,3.8-3,8.5-3,14.2c0,6.2,1.1,11.4,3.4,15.7c2.3,4.3,5.3,7.6,9,9.8
				C865.6,1023.5,869.5,1024.6,873.6,1024.6z"/>
			<path class="st1" d="M916.3,1026.8v-2c1.7-0.1,3.1-0.2,4.1-0.5c1-0.3,1.7-0.9,2.1-1.9c0.4-0.9,0.6-2.4,0.6-4.4v-41.3
				c0-2.1-0.2-3.6-0.7-4.5c-0.5-0.9-1.4-1.5-2.6-1.8c-1.3-0.3-3.2-0.5-5.7-0.5v-2h9.1c4.3,0,7.9-0.1,10.6-0.2
				c2.7-0.1,4.9-0.2,6.5-0.2c6.6,0,11.9,1.2,16,3.6c4,2.4,6,5.8,6,10.3c0,2.1-0.5,4.2-1.6,6.3c-1.1,2.1-2.7,3.9-5,5.5
				c-2.3,1.6-5.3,2.8-9,3.6c-3.7,0.8-8.2,1-13.5,0.5v-2.7c5.1,0.4,9.1,0,12-1.1s5-2.8,6.2-4.9c1.2-2.1,1.8-4.4,1.8-6.8
				c0-3-0.7-5.3-2.2-7s-3.3-2.7-5.6-3.3c-2.3-0.6-4.8-0.9-7.5-0.9c-2.2,0-3.8,0.4-4.9,1.1c-1.1,0.7-1.7,2.4-1.7,5.1v41.3
				c0,2,0.2,3.5,0.7,4.4c0.5,0.9,1.4,1.6,2.9,1.9c1.4,0.3,3.6,0.5,6.4,0.5v2H916.3z"/>
			<path class="st1" d="M972.6,1026.8v-2c1.7-0.1,3.1-0.2,4.1-0.5c1-0.3,1.7-0.9,2.1-1.9c0.4-0.9,0.6-2.4,0.6-4.4v-41.3
				c0-2.1-0.2-3.6-0.7-4.5c-0.5-0.9-1.4-1.5-2.6-1.8c-1.3-0.3-3.2-0.5-5.7-0.5v-2h23.9v2c-1.7,0.1-3.1,0.2-4,0.5
				c-1,0.3-1.6,0.9-2.1,1.8c-0.4,0.9-0.6,2.4-0.6,4.5v41.3c0,2,0.2,3.5,0.7,4.4c0.5,0.9,1.4,1.6,2.7,1.9c1.3,0.3,3.2,0.5,5.7,0.5v2
				H972.6z"/>
			<path class="st1" d="M1026.3,1028.2c-1.8,0-3.8-0.2-5.9-0.6c-2.2-0.4-4.2-1-6.2-1.8c-1.9-0.8-3.5-2-4.8-3.4
				c-1.2-1.5-1.9-3.2-1.9-5.4c0-1.2,0.2-2.4,0.5-3.7c0.3-1.3,0.7-2.4,1.2-3.2h2.2c0.3,4.5,1.8,8.1,4.8,10.7
				c2.9,2.6,6.7,3.9,11.2,3.9c3.1,0,5.6-0.5,7.5-1.6c1.9-1.1,3.2-2.4,4.1-4.1c0.9-1.7,1.3-3.5,1.3-5.4c0-2.7-0.7-5-2.2-6.7
				c-1.5-1.7-3.4-3.2-5.7-4.4c-2.3-1.2-4.8-2.4-7.4-3.5c-2.6-1.1-5-2.3-7.4-3.7c-2.3-1.4-4.2-3-5.7-5.1c-1.5-2-2.2-4.6-2.2-7.6
				c0-3.2,0.9-6,2.6-8.4c1.7-2.4,4.1-4.3,7.3-5.6c3.1-1.4,6.8-2,11-2c3.7,0,6.7,0.3,9.1,0.8c2.4,0.5,4.3,1.1,5.8,1.6v12.9h-2.2
				c-0.4-3.8-1.6-6.7-3.6-8.7c-2-2-5.3-3-9.7-3c-3.1,0-5.7,0.5-7.6,1.4c-1.9,0.9-3.3,2.1-4.2,3.6c-0.9,1.5-1.3,3-1.3,4.6
				c0,2.4,0.7,4.3,2.2,5.9c1.5,1.5,3.4,2.9,5.7,4c2.3,1.1,4.8,2.2,7.5,3.4c2.6,1.1,5.1,2.4,7.5,3.9c2.3,1.5,4.2,3.3,5.7,5.5
				c1.5,2.2,2.2,5,2.2,8.3c0,3.7-0.9,6.8-2.7,9.5c-1.8,2.6-4.3,4.7-7.5,6.1C1034.1,1027.5,1030.4,1028.2,1026.3,1028.2z"/>
			<path class="st1" d="M1055.7,967.8h51.5v13.9h-2.2c-0.1-2.1-0.5-3.9-1.1-5.5c-0.6-1.6-1.7-2.9-3.2-3.8c-1.6-0.9-4-1.4-7.3-1.4
				h-7.9v47c0,2,0.2,3.5,0.7,4.4c0.5,0.9,1.4,1.6,2.7,1.9c1.3,0.3,3.2,0.5,5.7,0.5v2h-23.9v-2c1.7-0.1,3.1-0.2,4.1-0.5
				c1-0.3,1.7-0.9,2.1-1.9c0.4-0.9,0.6-2.4,0.6-4.4v-47h-8c-3.2,0-5.6,0.5-7.2,1.4c-1.6,0.9-2.7,2.2-3.2,3.8
				c-0.6,1.6-0.9,3.4-1.1,5.5h-2.2V967.8z"/>
			<path class="st1" d="M1134.3,1028.2c-1.8,0-3.8-0.2-5.9-0.6c-2.2-0.4-4.2-1-6.2-1.8c-1.9-0.8-3.5-2-4.8-3.4
				c-1.2-1.5-1.9-3.2-1.9-5.4c0-1.2,0.2-2.4,0.5-3.7c0.3-1.3,0.7-2.4,1.2-3.2h2.2c0.3,4.5,1.8,8.1,4.8,10.7
				c2.9,2.6,6.7,3.9,11.2,3.9c3.1,0,5.6-0.5,7.5-1.6c1.9-1.1,3.2-2.4,4.1-4.1c0.9-1.7,1.3-3.5,1.3-5.4c0-2.7-0.7-5-2.2-6.7
				c-1.5-1.7-3.4-3.2-5.7-4.4c-2.3-1.2-4.8-2.4-7.4-3.5c-2.6-1.1-5-2.3-7.4-3.7c-2.3-1.4-4.2-3-5.7-5.1c-1.5-2-2.2-4.6-2.2-7.6
				c0-3.2,0.9-6,2.6-8.4c1.7-2.4,4.1-4.3,7.3-5.6c3.1-1.4,6.8-2,11-2c3.7,0,6.7,0.3,9.1,0.8c2.4,0.5,4.3,1.1,5.8,1.6v12.9h-2.2
				c-0.4-3.8-1.6-6.7-3.6-8.7c-2-2-5.3-3-9.7-3c-3.1,0-5.7,0.5-7.6,1.4c-1.9,0.9-3.3,2.1-4.2,3.6c-0.9,1.5-1.3,3-1.3,4.6
				c0,2.4,0.7,4.3,2.2,5.9c1.5,1.5,3.4,2.9,5.7,4c2.3,1.1,4.8,2.2,7.5,3.4c2.6,1.1,5.1,2.4,7.5,3.9c2.3,1.5,4.2,3.3,5.7,5.5
				c1.5,2.2,2.2,5,2.2,8.3c0,3.7-0.9,6.8-2.7,9.5c-1.8,2.6-4.3,4.7-7.5,6.1C1142.1,1027.5,1138.4,1028.2,1134.3,1028.2z"/>
		</g>
		<g>
			<path class="st1" d="M127.7,942.7c2.5,0.3,4.9,0.5,3.7,3.6c-2.3,6.1,2.3,10.6,4.1,15.6c0.7,2,1.7,3.7,1.3,5.8
				c-1.8,8.5-1.3,9.4,7,12.1c1.4,0,2.7,0,4.1,0.1c2.1-0.5,4.3-1,6.4-1.6c8.4-2.5,9-2.1,8.6,6.4c3.4,6.1,6.8,12.2,10.3,18.3
				c2.2,3.8,1.6,7.2-1.4,10.4c-3.8,4.1-7.6,8.3-10.1,13.4c10.3-2.6,19.8-7.1,29.4-11.3c4.7-2,10-1.2,14.1-4.2
				c1.9-6.8-2.2-12.8-2.8-19.3c-0.4-4.3-0.8-8.7-3.3-12.8c0.2,0.1,0.4,0.1,0.6,0.2c1.4,0,2.7,0,4.1,0.1c2.1-0.5,4.3-1,6.4-1.6
				c8.4-2.5,9-2.1,8.6,6.4c3.4,6.1,6.8,12.2,10.3,18.3c2.2,3.8,1.6,7.2-1.4,10.4c-3.8,4.1-7.6,8.3-10.1,13.4
				c10.3-2.6,19.8-7.1,29.4-11.3c4.7-2,10-1.2,14.1-4.2c1.9-6.8-2.1-12.8-2.8-19.3c-0.5-4.4-0.8-8.9-3.5-13.2
				c-2.6-4.1-5.5-4.9-9.8-4.2c-3.8,0.6-7.6,1.2-11.5,1.6c-2.5,0.3-5,0-7.3-1.3c-1.5-0.8-7.8-17.8-7.3-19.6c-2.5-1.1-4.5-2.3-2.3-5.2
				c2.5-3.4,0-4.1-2.9-5.2c-6.4-2.2-7.1-4.4-2.8-9.2c2.8-3.2,4.9-6.6,6.8-10.3c1-1.9,1.9-4.2,0.8-6.1c-5.6-9.7-0.5-19.2,0.8-28.7
				c0.2-1.5,2.1-2.8-0.2-4.4c-6.1-4.4-3.4-8.3,1-12c1.7-1.8,3.2-3.8,5.7-4.9c1.9-2.2,4.2-3.9,7-4.9c1.1-0.8,2.2-1.9,3.7-0.5
				c0,0,0.2,0,0.2,0c3.8-5.2,10.6-4.4,15.8-6.8c4.3-2,9.1-1.5,13.8-1.2c2.2,0.1,4.7,0.8,6.1-2.1c-13.1-3.3-26.3-1.6-39.4-1.7
				c-5.6,0-11.1,0.8-16.5,2.1c-13-3.3-26.1-1.5-39.2-1.6c-7.7-0.1-15.2,1.5-22.5,3.8c-10.9,3.4-20,9.3-26.5,18.3
				c-3.2,4.4-3.7,8.4,2.7,10.6c3,1,2.9,2.3,2.1,4.7c-1.8,5-3.3,10.1-4.9,15.2c-1.2,3.5-1.6,7,0.9,10.2c2.6,3.3,0.6,5.9-0.9,8.7
				c-1.1,3.8-2.4,7.4-4.6,10.9C119.9,939.5,121.5,942,127.7,942.7z M154.9,935.8c2.8-3.2,4.9-6.6,6.8-10.3c1-1.9,1.9-4.2,0.8-6.1
				c-5.6-9.7-0.5-19.2,0.8-28.7c0.2-1.5,2.1-2.8-0.2-4.4c-6.1-4.4-3.4-8.3,1-12c1.7-1.8,3.2-3.8,5.7-4.9c1.9-2.2,4.2-3.9,7-4.9
				c1.1-0.8,2.2-1.9,3.7-0.5c0,0,0.2,0,0.2,0c3.8-5.2,10.6-4.4,15.8-6.8c3.9-1.8,8.1-1.6,12.4-1.3c-10.3,3.5-18.9,9.3-25.1,17.9
				c-3.2,4.4-3.7,8.4,2.7,10.6c3,1,2.9,2.3,2.1,4.7c-1.8,5-3.3,10.1-4.9,15.2c-1.2,3.5-1.6,7,0.9,10.2c2.6,3.3,0.6,5.9-0.9,8.7
				c-1.1,3.8-2.4,7.4-4.6,10.9c-3.3,5.1-1.7,7.6,4.5,8.3c2.5,0.3,4.9,0.5,3.7,3.6c-2.3,6.1,2.3,10.6,4.1,15.6c0.7,2,1.7,3.7,1.3,5.8
				c-0.7,3.4-1.1,5.6-0.7,7.2c-0.9,0-1.8,0.1-2.9,0.2c-3.8,0.6-7.6,1.2-11.5,1.6c-2.5,0.3-5,0-7.3-1.3c-1.5-0.8-7.8-17.8-7.3-19.6
				c-2.5-1.1-4.5-2.3-2.3-5.2c2.5-3.4,0-4.1-2.9-5.2C151.3,942.8,150.6,940.6,154.9,935.8z"/>
		</g>
	</g>
</g>
</svg>
